<svg width="2638" height="925" xmlns="http://www.w3.org/2000/svg" xmlns:xlink="http://www.w3.org/1999/xlink" xml:space="preserve" overflow="hidden"><g transform="translate(-516 -1180)"><text fill="#FFFFFF" font-family="Wanted Sans,Wanted Sans_MSFontService,sans-serif" font-weight="400" font-size="440" transform="matrix(1 0 0 1 948.097 1733)">v</text><text fill="#FFFFFF" font-family="Wanted Sans,Wanted Sans_MSFontService,sans-serif" font-weight="400" font-size="440" transform="matrix(1 0 0 1 1150.91 1733)">oca</text><text fill="#FFFFFF" font-family="Wanted Sans ExtraBlack,Wanted Sans ExtraBlack_MSFontService,sans-serif" font-weight="900" font-size="440" transform="matrix(1 0 0 1 1826.38 1733)">B</text><text fill="#FFFFFF" font-family="Wanted Sans ExtraBlack,Wanted Sans ExtraBlack_MSFontService,sans-serif" font-weight="900" font-size="440" transform="matrix(1 0 0 1 2079.61 1733)">oost</text><path d="M519.5 1449.33C519.5 1412.42 549.423 1382.5 586.335 1382.5L853.665 1382.5C890.577 1382.5 920.5 1412.42 920.5 1449.33L920.5 1716.67C920.5 1753.58 890.577 1783.5 853.665 1783.5L586.335 1783.5C549.423 1783.5 519.5 1753.58 519.5 1716.67Z" stroke="#FFFFFF" stroke-width="6.875" stroke-miterlimit="8" fill="#FFFFFF" fill-rule="evenodd"/><g><g><g><path d="M838.486 1464.11C834.3 1459.93 807.394 1464.71 784.972 1470.69 793.044 1475.47 801.415 1482.05 809.487 1490.12 817.857 1498.49 824.435 1506.86 829.218 1515.23 835.197 1492.21 842.97 1468.3 838.486 1464.11Z" fill="#1B3A94"/><path d="M671.966 1549.32 661.801 1545.43C657.616 1543.93 653.131 1544.83 649.843 1547.82L602.308 1595.36C594.536 1603.13 601.711 1616.58 612.473 1614.19L652.234 1605.22C655.523 1590.27 660.904 1570.24 671.966 1549.32Z" fill="#1B3A94"/><path d="M751.19 1627.34C731.16 1637.81 712.026 1643.49 696.48 1646.48L687.213 1688.93C684.821 1699.69 697.975 1707.17 706.047 1699.09L753.581 1651.56C756.571 1648.57 757.767 1643.79 755.973 1639.6L751.19 1627.34Z" fill="#1B3A94"/><path d="M768.828 1476.07C751.19 1483.25 731.16 1495.5 711.727 1514.94 676.151 1550.51 665.688 1593.56 662.698 1618.08L681.233 1636.61C705.748 1633.62 749.097 1623.46 784.673 1587.88 804.105 1568.45 816.363 1548.72 823.538 1531.08 819.651 1521.21 811.878 1509.55 800.817 1498.19 790.054 1487.73 778.694 1479.96 768.828 1476.07ZM784.075 1540.65C777.199 1547.52 765.839 1547.52 758.664 1540.65 751.788 1533.77 751.788 1522.41 758.664 1515.23 765.54 1508.36 776.9 1508.36 784.075 1515.23 790.951 1522.41 790.951 1533.77 784.075 1540.65Z" fill="#1B3A94"/><path d="M662.399 1636.91C657.616 1632.13 658.214 1624.06 648.348 1633.92 638.482 1643.79 623.833 1666.21 628.318 1670.99 633.101 1675.77 655.523 1660.83 665.389 1650.96 675.254 1640.8 667.182 1641.39 662.399 1636.91Z" fill="#1B3A94"/></g></g></g></g></svg>