<svg width="660" height="660" xmlns="http://www.w3.org/2000/svg" xmlns:xlink="http://www.w3.org/1999/xlink" xml:space="preserve" overflow="hidden"><g transform="translate(-1805 -845)"><path d="M1884 1403 2138.5 964 2393 1403Z" stroke="#1B3A94" stroke-width="27.5" stroke-miterlimit="8" stroke-opacity="0.701961" fill="none" fill-rule="evenodd"/><path d="M2143 1259 2392.48 1402.38" stroke="#1B3A94" stroke-width="27.5" stroke-miterlimit="8" stroke-opacity="0.701961" fill="none" fill-rule="evenodd"/><path d="M0 0 254.489 146.258" stroke="#1B3A94" stroke-width="27.5" stroke-miterlimit="8" stroke-opacity="0.701961" fill="none" fill-rule="evenodd" transform="matrix(-1 0 0 1 2138.49 1257)"/><path d="M2138 964 2138 1255.08" stroke="#1B3A94" stroke-width="27.5" stroke-miterlimit="8" stroke-opacity="0.701961" fill="none" fill-rule="evenodd"/><path d="M2069 952.5 2100.75 889 2176.25 889 2208 952.5 2176.25 1016 2100.75 1016Z" fill="#1B3A94" fill-rule="evenodd" fill-opacity="0.94902"/><path d="M2069 1259.5 2100.75 1196 2176.25 1196 2208 1259.5 2176.25 1323 2100.75 1323Z" fill="#1B3A94" fill-rule="evenodd" fill-opacity="0.94902"/><path d="M1809 1403 1840.5 1340 1916.5 1340 1948 1403 1916.5 1466 1840.5 1466Z" fill="#1B3A94" fill-rule="evenodd" fill-opacity="0.94902"/><path d="M2323 1403 2354.5 1340 2430.5 1340 2462 1403 2430.5 1466 2354.5 1466Z" fill="#1B3A94" fill-rule="evenodd" fill-opacity="0.94902"/></g></svg>