<svg width="2508" height="408" xmlns="http://www.w3.org/2000/svg" xmlns:xlink="http://www.w3.org/1999/xlink" xml:space="preserve" overflow="hidden"><g transform="translate(-639 -552)"><path d="M1078.48 684.61 1117.58 684.61 1186.76 870.664 1188.48 870.664 1257.66 684.61 1296.76 684.61 1211.69 906.328 1163.56 906.328Z" stroke="#FFFFFF" stroke-width="3" stroke-linejoin="round" stroke-miterlimit="10" fill="#FFFFFF" fill-rule="evenodd"/><text fill="#000000" fill-opacity="0" font-family="Arial,Arial_MSFontService,sans-serif" font-size="221.719" x="1078.48" y="878.613">v</text><path d="M1845.75 712.969C1831.71 712.969 1819.22 716.478 1808.26 723.496 1797.3 730.515 1788.78 740.29 1782.69 752.822 1776.6 765.355 1773.56 779.57 1773.56 795.469 1773.56 811.367 1776.6 825.583 1782.69 838.115 1788.78 850.648 1797.3 860.423 1808.26 867.442 1819.22 874.46 1831.71 877.969 1845.75 877.969 1859.64 877.969 1872.07 874.46 1883.02 867.442 1893.98 860.423 1902.54 850.684 1908.7 838.223 1914.86 825.762 1917.94 811.511 1917.94 795.469 1917.94 779.427 1914.86 765.176 1908.7 752.715 1902.54 740.254 1893.98 730.515 1883.02 723.496 1872.07 716.478 1859.64 712.969 1845.75 712.969ZM1405.48 712.969C1390.58 712.969 1377.29 716.478 1365.62 723.496 1353.95 730.515 1344.85 740.254 1338.34 752.715 1331.82 765.176 1328.56 779.427 1328.56 795.469 1328.56 811.511 1331.82 825.762 1338.34 838.223 1344.85 850.684 1353.95 860.423 1365.62 867.442 1377.29 874.46 1390.58 877.969 1405.48 877.969 1420.37 877.969 1433.66 874.46 1445.33 867.442 1457 860.423 1466.1 850.684 1472.61 838.223 1479.13 825.762 1482.39 811.511 1482.39 795.469 1482.39 779.427 1479.13 765.176 1472.61 752.715 1466.1 740.254 1457 730.515 1445.33 723.496 1433.66 716.478 1420.37 712.969 1405.48 712.969ZM1842.31 678.594C1858.5 678.594 1872.71 682.067 1884.96 689.014 1897.2 695.96 1907.12 706.094 1914.71 719.414L1916.22 719.414 1916.22 684.61 1952.31 684.61 1952.31 906.328 1916.22 906.328 1916.22 871.524 1914.71 871.524C1907.12 884.844 1897.2 894.977 1884.96 901.924 1872.71 908.871 1858.5 912.344 1842.31 912.344 1822.12 912.344 1804 907.259 1787.96 897.09 1771.91 886.921 1759.35 872.92 1750.25 855.088 1741.16 837.256 1736.61 817.383 1736.61 795.469 1736.61 773.555 1741.16 753.682 1750.25 735.85 1759.35 718.018 1771.91 704.017 1787.96 693.848 1804 683.679 1822.12 678.594 1842.31 678.594ZM1639.33 678.594C1659.67 678.594 1677.83 683.141 1693.8 692.237 1709.77 701.332 1722.41 713.972 1731.72 730.156L1699.92 746.485C1693.9 735.742 1685.7 727.471 1675.32 721.67 1664.94 715.869 1652.94 712.969 1639.33 712.969 1624.15 712.969 1610.69 716.478 1598.94 723.496 1587.2 730.515 1578.03 740.254 1571.44 752.715 1564.86 765.176 1561.56 779.427 1561.56 795.469 1561.56 811.511 1564.86 825.762 1571.44 838.223 1578.03 850.684 1587.2 860.423 1598.94 867.442 1610.69 874.46 1624.15 877.969 1639.33 877.969 1652.94 877.969 1664.94 875.069 1675.32 869.268 1685.7 863.467 1693.9 855.195 1699.92 844.453L1731.72 860.781C1722.41 876.966 1709.77 889.606 1693.8 898.701 1677.83 907.796 1659.67 912.344 1639.33 912.344 1617.71 912.344 1598.16 907.259 1580.68 897.09 1563.21 886.921 1549.49 872.92 1539.54 855.088 1529.59 837.256 1524.61 817.383 1524.61 795.469 1524.61 773.555 1529.59 753.682 1539.54 735.85 1549.49 718.018 1563.21 704.017 1580.68 693.848 1598.16 683.679 1617.71 678.594 1639.33 678.594ZM1405.48 678.594C1426.82 678.594 1446.15 683.679 1463.48 693.848 1480.81 704.017 1494.46 718.018 1504.41 735.85 1514.37 753.682 1519.34 773.555 1519.34 795.469 1519.34 817.383 1514.37 837.256 1504.41 855.088 1494.46 872.92 1480.81 886.921 1463.48 897.09 1446.15 907.259 1426.82 912.344 1405.48 912.344 1384.13 912.344 1364.8 907.259 1347.47 897.09 1330.14 886.921 1316.49 872.92 1306.54 855.088 1296.59 837.256 1291.61 817.383 1291.61 795.469 1291.61 773.555 1296.59 753.682 1306.54 735.85 1316.49 718.018 1330.14 704.017 1347.47 693.848 1364.8 683.679 1384.13 678.594 1405.48 678.594Z" stroke="#FFFFFF" stroke-width="3" stroke-linejoin="round" stroke-miterlimit="10" fill="#FFFFFF" fill-rule="evenodd"/><text fill="#000000" fill-opacity="0" font-family="Arial,Arial_MSFontService,sans-serif" font-size="233.75" x="1291.61" y="883.125">oca</text><path d="M2056.02 782.578 2056.02 825.547 2091.69 825.547C2101.43 825.547 2108.95 823.685 2114.24 819.961 2119.54 816.237 2122.19 810.938 2122.19 804.063 2122.19 797.188 2119.54 791.888 2114.24 788.164 2108.95 784.44 2101.43 782.578 2091.69 782.578ZM2056.02 670.86 2056.02 710.391 2087.82 710.391C2096.84 710.391 2103.82 708.672 2108.77 705.235 2113.71 701.797 2116.18 696.927 2116.18 690.625 2116.18 684.323 2113.71 679.453 2108.77 676.016 2103.82 672.578 2096.84 670.86 2087.82 670.86ZM1973.52 595.235 2098.99 595.235C2120.76 595.235 2139.81 598.493 2156.14 605.01 2172.47 611.527 2185.07 620.729 2193.95 632.617 2202.83 644.505 2207.27 658.255 2207.27 673.867 2207.27 689.623 2202.76 703.265 2193.74 714.795 2184.71 726.325 2171.89 735.098 2155.28 741.113L2155.28 742.617C2176.19 748.633 2192.38 758.301 2203.83 771.621 2215.29 784.942 2221.02 801.055 2221.02 819.961 2221.02 837.149 2216.26 852.259 2206.73 865.293 2197.21 878.327 2183.64 888.425 2166.02 895.586 2148.4 902.748 2127.78 906.328 2104.15 906.328L1973.52 906.328Z" stroke="#FFFFFF" stroke-width="3" stroke-linejoin="round" stroke-miterlimit="10" fill="#FFFFFF" fill-rule="evenodd"/><text fill="#000000" fill-opacity="0" font-family="Arial,Arial_MSFontService,sans-serif" font-size="311.094" x="1973.52" y="867.442">B</text><path d="M2562.88 755.938C2555.44 755.938 2548.74 757.621 2542.8 760.987 2536.85 764.352 2532.2 769.043 2528.83 775.059 2525.47 781.074 2523.78 787.878 2523.78 795.469 2523.78 803.06 2525.47 809.863 2528.83 815.879 2532.2 821.895 2536.85 826.585 2542.8 829.951 2548.74 833.317 2555.44 835 2562.88 835 2570.33 835 2577.03 833.317 2582.97 829.951 2588.92 826.585 2593.57 821.895 2596.94 815.879 2600.3 809.863 2601.99 803.06 2601.99 795.469 2601.99 787.878 2600.3 781.074 2596.94 775.059 2593.57 769.043 2588.92 764.352 2582.97 760.987 2577.03 757.621 2570.33 755.938 2562.88 755.938ZM2332.88 755.938C2325.44 755.938 2318.74 757.621 2312.8 760.987 2306.85 764.352 2302.2 769.043 2298.83 775.059 2295.47 781.074 2293.78 787.878 2293.78 795.469 2293.78 803.06 2295.47 809.863 2298.83 815.879 2302.2 821.895 2306.85 826.585 2312.8 829.951 2318.74 833.317 2325.44 835 2332.88 835 2340.33 835 2347.03 833.317 2352.97 829.951 2358.92 826.585 2363.57 821.895 2366.94 815.879 2370.3 809.863 2371.99 803.06 2371.99 795.469 2371.99 787.878 2370.3 781.074 2366.94 775.059 2363.57 769.043 2358.92 764.352 2352.97 760.987 2347.03 757.621 2340.33 755.938 2332.88 755.938ZM2332.88 678.594C2355.37 678.594 2375.75 683.679 2394.01 693.848 2412.27 704.017 2426.63 718.018 2437.08 735.85 2441 742.537 2444.19 749.511 2446.64 756.772L2447.88 760.92 2449.13 756.772C2451.58 749.511 2454.76 742.537 2458.68 735.85 2469.14 718.018 2483.5 704.017 2501.76 693.848 2520.02 683.679 2540.4 678.594 2562.88 678.594 2585.37 678.594 2605.75 683.679 2624.01 693.848 2642.27 704.017 2656.63 718.018 2667.08 735.85 2677.54 753.682 2682.77 773.555 2682.77 795.469 2682.77 817.383 2677.54 837.256 2667.08 855.088 2656.63 872.92 2642.27 886.921 2624.01 897.09 2605.75 907.259 2585.37 912.344 2562.88 912.344 2540.4 912.344 2520.02 907.259 2501.76 897.09 2483.5 886.921 2469.14 872.92 2458.68 855.088 2454.76 848.401 2451.58 841.427 2449.13 834.166L2447.88 830.018 2446.64 834.166C2444.19 841.427 2441 848.401 2437.08 855.088 2426.63 872.92 2412.27 886.921 2394.01 897.09 2375.75 907.259 2355.37 912.344 2332.88 912.344 2310.4 912.344 2290.02 907.259 2271.76 897.09 2253.5 886.921 2239.14 872.92 2228.68 855.088 2218.23 837.256 2213 817.383 2213 795.469 2213 773.555 2218.23 753.682 2228.68 735.85 2239.14 718.018 2253.5 704.017 2271.76 693.848 2290.02 683.679 2310.4 678.594 2332.88 678.594ZM2894.95 629.61 2980.89 629.61 2980.89 684.61 3029.02 684.61 3029.02 749.922 2980.89 749.922 2980.89 806.211C2980.89 815.378 2982.83 821.895 2986.69 825.762 2990.56 829.629 2997.08 831.563 3006.24 831.563 3013.4 831.563 3021 830.56 3029.02 828.555L3029.02 905.039C3015.7 909.909 3001.37 912.344 2986.05 912.344 2955.97 912.344 2933.27 903.858 2917.94 886.885 2902.62 869.912 2894.95 844.883 2894.95 811.797L2894.95 749.922 2858.86 749.922 2858.86 717.501 2830.84 759.375C2815.8 749.063 2799.61 743.906 2782.28 743.906 2775.84 743.906 2770.93 744.623 2767.57 746.055 2764.2 747.487 2762.52 749.492 2762.52 752.07 2762.52 753.932 2763.45 755.472 2765.31 756.69 2767.17 757.907 2770.39 759.089 2774.98 760.235L2785.72 762.813C2813.65 769.544 2834.24 778.747 2847.49 790.42 2860.74 802.093 2867.36 816.953 2867.36 835 2867.36 850.182 2863.17 863.61 2854.79 875.283 2846.41 886.957 2834.6 896.052 2819.34 902.569 2804.09 909.085 2786.58 912.344 2766.81 912.344 2748.77 912.344 2731.47 909.694 2714.93 904.395 2698.39 899.095 2684.74 891.862 2674 882.695L2712.67 828.985C2732.01 841.016 2750.06 847.031 2766.81 847.031 2779.42 847.031 2785.72 844.167 2785.72 838.438 2785.72 835.86 2784.29 833.747 2781.42 832.1 2778.56 830.453 2773.69 828.841 2766.81 827.266L2756.93 825.117C2732.3 819.818 2713.46 811.188 2700.43 799.229 2687.39 787.269 2680.88 772.695 2680.88 755.508 2680.88 740.899 2685.28 727.757 2694.09 716.084 2702.9 704.411 2715.04 695.244 2730.51 688.584 2745.97 681.924 2763.23 678.594 2782.28 678.594 2807.47 678.594 2832.55 684.954 2857.52 697.675L2858.86 698.38 2858.86 684.61 2894.95 684.61Z" stroke="#FFFFFF" stroke-width="3" stroke-linejoin="round" stroke-miterlimit="10" fill="#FFFFFF" fill-rule="evenodd"/><text fill="#000000" fill-opacity="0" font-family="Arial,Arial_MSFontService,sans-serif" font-size="282.734" x="2213" y="877.002">oost</text><path d="M642.5 622.168C642.5 585.348 672.348 555.5 709.168 555.5L975.832 555.5C1012.65 555.5 1042.5 585.348 1042.5 622.168L1042.5 889.832C1042.5 926.652 1012.65 956.5 975.832 956.5L709.168 956.5C672.348 956.5 642.5 926.652 642.5 889.832Z" stroke="#FFFFFF" stroke-width="6.875" stroke-miterlimit="8" fill="#FFFFFF" fill-rule="evenodd"/><g><g><g><path d="M261.571 25.025C257.4 20.8542 230.588 25.6208 208.244 31.5792 216.288 36.3458 224.629 42.9 232.673 50.9438 241.015 59.2854 247.569 67.6271 252.335 75.9688 258.294 53.0292 266.04 29.1958 261.571 25.025Z" fill="#F97316" transform="matrix(1 0 0 1.0035 699 612)"/><path d="M95.6312 109.931 85.5021 106.058C81.3313 104.569 76.8625 105.463 73.5854 108.442L26.2167 155.81C18.4708 163.556 25.6208 176.963 36.3458 174.579L75.9688 165.642C79.2458 150.746 84.6083 130.785 95.6312 109.931Z" fill="#F97316" transform="matrix(1 0 0 1.0035 699 612)"/><path d="M174.579 187.688C154.619 198.115 135.552 203.775 120.06 206.754L110.825 249.058C108.442 259.783 121.55 267.231 129.594 259.188L176.963 211.819C179.942 208.84 181.133 204.073 179.346 199.902L174.579 187.688Z" fill="#F97316" transform="matrix(1 0 0 1.0035 699 612)"/><path d="M192.156 36.9417C174.579 44.0917 154.619 56.3063 135.254 75.6708 99.8021 111.123 89.375 154.023 86.3958 178.452L104.867 196.923C129.296 193.944 172.494 183.815 207.946 148.363 227.31 128.998 239.525 109.335 246.675 91.7583 242.802 81.9271 235.056 70.3083 224.033 58.9875 213.308 48.5604 201.988 40.8146 192.156 36.9417ZM207.35 101.292C200.498 108.144 189.177 108.144 182.027 101.292 175.175 94.4396 175.175 83.1188 182.027 75.9688 188.879 69.1167 200.2 69.1167 207.35 75.9688 214.202 83.1188 214.202 94.4396 207.35 101.292Z" fill="#F97316" transform="matrix(1 0 0 1.0035 699 612)"/><path d="M86.0979 197.221C81.3313 192.454 81.9271 184.41 72.0958 194.242 62.2646 204.073 47.6667 226.417 52.1354 231.183 56.9021 235.95 79.2458 221.054 89.0771 211.223 98.9083 201.094 90.8646 201.69 86.0979 197.221Z" fill="#F97316" transform="matrix(1 0 0 1.0035 699 612)"/></g></g></g></g></svg>