<svg width="2639" height="577" xmlns="http://www.w3.org/2000/svg" xmlns:xlink="http://www.w3.org/1999/xlink" xml:space="preserve" overflow="hidden"><defs><clipPath id="clip0"><rect x="508" y="461" width="2639" height="577"/></clipPath></defs><g clip-path="url(#clip0)" transform="translate(-508 -461)"><path d="M1880.7 712.969C1866.67 712.969 1854.17 716.478 1843.21 723.496 1832.25 730.515 1823.73 740.29 1817.65 752.822 1811.56 765.355 1808.51 779.57 1808.51 795.469 1808.51 811.367 1811.56 825.583 1817.65 838.115 1823.73 850.648 1832.25 860.423 1843.21 867.442 1854.17 874.46 1866.67 877.969 1880.7 877.969 1894.59 877.969 1907.02 874.46 1917.98 867.442 1928.93 860.423 1937.49 850.684 1943.65 838.223 1949.81 825.762 1952.89 811.511 1952.89 795.469 1952.89 779.427 1949.81 765.176 1943.65 752.715 1937.49 740.254 1928.93 730.515 1917.98 723.496 1907.02 716.478 1894.59 712.969 1880.7 712.969ZM1440.43 712.969C1425.53 712.969 1412.25 716.478 1400.57 723.496 1388.9 730.515 1379.81 740.254 1373.29 752.715 1366.77 765.176 1363.51 779.427 1363.51 795.469 1363.51 811.511 1366.77 825.762 1373.29 838.223 1379.81 850.684 1388.9 860.423 1400.57 867.442 1412.25 874.46 1425.53 877.969 1440.43 877.969 1455.32 877.969 1468.61 874.46 1480.28 867.442 1491.96 860.423 1501.05 850.684 1507.57 838.223 1514.08 825.762 1517.34 811.511 1517.34 795.469 1517.34 779.427 1514.08 765.176 1507.57 752.715 1501.05 740.254 1491.96 730.515 1480.28 723.496 1468.61 716.478 1455.32 712.969 1440.43 712.969ZM1877.26 678.594C1893.45 678.594 1907.66 682.067 1919.91 689.014 1932.16 695.96 1942.08 706.094 1949.67 719.414L1951.17 719.414 1951.17 684.61 1987.26 684.61 1987.26 906.328 1951.17 906.328 1951.17 871.524 1949.67 871.524C1942.08 884.844 1932.16 894.977 1919.91 901.924 1907.66 908.871 1893.45 912.344 1877.26 912.344 1857.07 912.344 1838.95 907.259 1822.91 897.09 1806.87 886.921 1794.3 872.92 1785.2 855.088 1776.11 837.256 1771.56 817.383 1771.56 795.469 1771.56 773.555 1776.11 753.682 1785.2 735.85 1794.3 718.018 1806.87 704.017 1822.91 693.848 1838.95 683.679 1857.07 678.594 1877.26 678.594ZM1674.29 678.594C1694.63 678.594 1712.78 683.141 1728.75 692.237 1744.72 701.332 1757.36 713.972 1766.67 730.156L1734.87 746.485C1728.86 735.742 1720.66 727.471 1710.27 721.67 1699.89 715.869 1687.89 712.969 1674.29 712.969 1659.11 712.969 1645.64 716.478 1633.9 723.496 1622.15 730.515 1612.99 740.254 1606.4 752.715 1599.81 765.176 1596.51 779.427 1596.51 795.469 1596.51 811.511 1599.81 825.762 1606.4 838.223 1612.99 850.684 1622.15 860.423 1633.9 867.442 1645.64 874.46 1659.11 877.969 1674.29 877.969 1687.89 877.969 1699.89 875.069 1710.27 869.268 1720.66 863.467 1728.86 855.195 1734.87 844.453L1766.67 860.781C1757.36 876.966 1744.72 889.606 1728.75 898.701 1712.78 907.796 1694.63 912.344 1674.29 912.344 1652.66 912.344 1633.11 907.259 1615.64 897.09 1598.16 886.921 1584.45 872.92 1574.49 855.088 1564.54 837.256 1559.56 817.383 1559.56 795.469 1559.56 773.555 1564.54 753.682 1574.49 735.85 1584.45 718.018 1598.16 704.017 1615.64 693.848 1633.11 683.679 1652.66 678.594 1674.29 678.594ZM1440.43 678.594C1461.77 678.594 1481.11 683.679 1498.44 693.848 1515.77 704.017 1529.41 718.018 1539.36 735.85 1549.32 753.682 1554.3 773.555 1554.3 795.469 1554.3 817.383 1549.32 837.256 1539.36 855.088 1529.41 872.92 1515.77 886.921 1498.44 897.09 1481.11 907.259 1461.77 912.344 1440.43 912.344 1419.09 912.344 1399.75 907.259 1382.42 897.09 1365.09 886.921 1351.45 872.92 1341.49 855.088 1331.54 837.256 1326.56 817.383 1326.56 795.469 1326.56 773.555 1331.54 753.682 1341.49 735.85 1351.45 718.018 1365.09 704.017 1382.42 693.848 1399.75 683.679 1419.09 678.594 1440.43 678.594ZM1044.97 595.235 1086.22 595.235 1186.76 863.789 1188.48 863.789 1289.03 595.235 1330.28 595.235 1211.26 906.328 1163.99 906.328Z" stroke="#FFFFFF" stroke-width="3" stroke-linejoin="round" stroke-miterlimit="10" fill="#1B3A94" fill-rule="evenodd"/><text fill="#000000" fill-opacity="0" font-family="Arial,Arial_MSFontService,sans-serif" font-size="317.109" x="1044.97" y="872.705">Voca</text><path d="M2091.26 782.578 2091.26 825.547 2126.92 825.547C2136.66 825.547 2144.18 823.685 2149.48 819.961 2154.78 816.237 2157.43 810.938 2157.43 804.063 2157.43 797.188 2154.78 791.888 2149.48 788.164 2144.18 784.44 2136.66 782.578 2126.92 782.578ZM2598.89 755.938C2591.44 755.938 2584.75 757.621 2578.8 760.987 2572.86 764.352 2568.2 769.043 2564.84 775.059 2561.47 781.074 2559.79 787.878 2559.79 795.469 2559.79 803.06 2561.47 809.863 2564.84 815.879 2568.2 821.895 2572.86 826.585 2578.8 829.951 2584.75 833.317 2591.44 835 2598.89 835 2606.34 835 2613.03 833.317 2618.98 829.951 2624.92 826.585 2629.58 821.895 2632.94 815.879 2636.31 809.863 2637.99 803.06 2637.99 795.469 2637.99 787.878 2636.31 781.074 2632.94 775.059 2629.58 769.043 2624.92 764.352 2618.98 760.987 2613.03 757.621 2606.34 755.938 2598.89 755.938ZM2367.89 755.938C2360.44 755.938 2353.75 757.621 2347.8 760.987 2341.86 764.352 2337.2 769.043 2333.84 775.059 2330.47 781.074 2328.79 787.878 2328.79 795.469 2328.79 803.06 2330.47 809.863 2333.84 815.879 2337.2 821.895 2341.86 826.585 2347.8 829.951 2353.75 833.317 2360.44 835 2367.89 835 2375.34 835 2382.03 833.317 2387.98 829.951 2393.92 826.585 2398.58 821.895 2401.94 815.879 2405.31 809.863 2406.99 803.06 2406.99 795.469 2406.99 787.878 2405.31 781.074 2401.94 775.059 2398.58 769.043 2393.92 764.352 2387.98 760.987 2382.03 757.621 2375.34 755.938 2367.89 755.938ZM2091.26 670.86 2091.26 710.391 2123.05 710.391C2132.08 710.391 2139.06 708.672 2144 705.235 2148.94 701.797 2151.41 696.927 2151.41 690.625 2151.41 684.323 2148.94 679.453 2144 676.016 2139.06 672.578 2132.08 670.86 2123.05 670.86ZM2929.96 629.61 3015.9 629.61 3015.9 684.61 3064.02 684.61 3064.02 749.922 3015.9 749.922 3015.9 806.211C3015.9 815.378 3017.83 821.895 3021.7 825.762 3025.56 829.629 3032.08 831.563 3041.25 831.563 3048.41 831.563 3056 830.56 3064.02 828.555L3064.02 905.039C3050.7 909.909 3036.38 912.344 3021.05 912.344 2990.98 912.344 2968.27 903.858 2952.95 886.885 2937.62 869.912 2929.96 844.883 2929.96 811.797L2929.96 749.922 2893.87 749.922 2893.87 717.501 2865.84 759.375C2850.8 749.063 2834.62 743.906 2817.29 743.906 2810.84 743.906 2805.94 744.623 2802.57 746.055 2799.21 747.487 2797.52 749.492 2797.52 752.07 2797.52 753.932 2798.45 755.472 2800.31 756.69 2802.18 757.907 2805.4 759.089 2809.98 760.235L2820.73 762.813C2848.65 769.544 2869.24 778.747 2882.49 790.42 2895.74 802.093 2902.37 816.953 2902.37 835 2902.37 850.182 2898.18 863.61 2889.8 875.283 2881.42 886.957 2869.6 896.052 2854.35 902.569 2839.09 909.085 2821.58 912.344 2801.82 912.344 2783.77 912.344 2766.48 909.694 2749.93 904.395 2733.39 899.095 2719.75 891.862 2709.01 882.695L2747.68 828.985C2767.01 841.016 2785.06 847.031 2801.82 847.031 2814.42 847.031 2820.73 844.167 2820.73 838.438 2820.73 835.86 2819.29 833.747 2816.43 832.1 2813.56 830.453 2808.69 828.841 2801.82 827.266L2791.94 825.117C2767.3 819.818 2748.47 811.188 2735.43 799.229 2722.4 787.269 2715.88 772.695 2715.88 755.508 2715.88 740.899 2720.29 727.757 2729.09 716.084 2737.9 704.411 2750.04 695.244 2765.51 688.584 2780.98 681.924 2798.24 678.594 2817.29 678.594 2842.48 678.594 2867.56 684.954 2892.53 697.675L2893.87 698.38 2893.87 684.61 2929.96 684.61ZM2008.76 595.235 2134.23 595.235C2156 595.235 2175.05 598.493 2191.37 605.01 2207.7 611.527 2220.31 620.729 2229.19 632.617 2238.07 644.505 2242.51 658.255 2242.51 673.867 2242.51 689.623 2237.99 703.265 2228.97 714.795 2219.95 726.325 2207.13 735.098 2190.51 741.113L2190.51 742.617C2211.43 748.633 2227.61 758.301 2239.07 771.621 2241.93 774.951 2244.44 778.456 2246.59 782.135L2248.41 785.622 2248.99 779.416C2250.95 763.746 2255.85 749.224 2263.69 735.85 2274.15 718.018 2288.5 704.017 2306.77 693.848 2325.03 683.679 2345.4 678.594 2367.89 678.594 2390.38 678.594 2410.75 683.679 2429.01 693.848 2447.27 704.017 2461.63 718.018 2472.09 735.85 2476.01 742.537 2479.2 749.511 2481.65 756.772L2483.39 762.588 2485.13 756.772C2487.58 749.511 2490.77 742.537 2494.69 735.85 2505.15 718.018 2519.5 704.017 2537.77 693.848 2556.03 683.679 2576.4 678.594 2598.89 678.594 2621.38 678.594 2641.75 683.679 2660.01 693.848 2678.27 704.017 2692.63 718.018 2703.09 735.85 2713.54 753.682 2718.77 773.555 2718.77 795.469 2718.77 817.383 2713.54 837.256 2703.09 855.088 2692.63 872.92 2678.27 886.921 2660.01 897.09 2641.75 907.259 2621.38 912.344 2598.89 912.344 2576.4 912.344 2556.03 907.259 2537.77 897.09 2519.5 886.921 2505.15 872.92 2494.69 855.088 2490.77 848.401 2487.58 841.427 2485.13 834.166L2483.39 828.35 2481.65 834.166C2479.2 841.427 2476.01 848.401 2472.09 855.088 2461.63 872.92 2447.27 886.921 2429.01 897.09 2410.75 907.259 2390.38 912.344 2367.89 912.344 2345.4 912.344 2325.03 907.259 2306.77 897.09 2288.5 886.921 2274.15 872.92 2263.69 855.088 2261.08 850.63 2258.79 846.044 2256.83 841.331L2254.74 835.784 2254.25 838.421C2252.01 848.19 2247.92 857.147 2241.97 865.293 2232.44 878.327 2218.87 888.425 2201.26 895.586 2183.64 902.748 2163.01 906.328 2139.38 906.328L2008.76 906.328Z" stroke="#FFFFFF" stroke-width="3" stroke-linejoin="round" stroke-miterlimit="10" fill="#1B3A94" fill-rule="evenodd"/><text fill="#000000" fill-opacity="0" font-family="Arial,Arial_MSFontService,sans-serif" font-size="317.109" x="2008.76" y="872.705">Boost</text><path d="M583 975 837 536 1091 975Z" stroke="#1B3A94" stroke-width="27.5" stroke-miterlimit="8" stroke-opacity="0.701961" fill="none" fill-rule="evenodd"/><path d="M842 831 1091.47 974.376" stroke="#1B3A94" stroke-width="27.5" stroke-miterlimit="8" stroke-opacity="0.701961" fill="none" fill-rule="evenodd"/><path d="M0 0 254.489 146.258" stroke="#1B3A94" stroke-width="27.5" stroke-miterlimit="8" stroke-opacity="0.701961" fill="none" fill-rule="evenodd" transform="matrix(-1 0 0 1 837.489 828)"/><path d="M837 536 837 827.077" stroke="#1B3A94" stroke-width="27.5" stroke-miterlimit="8" stroke-opacity="0.701961" fill="none" fill-rule="evenodd"/><path d="M768 524 799.5 461 874.5 461 906 524 874.5 587 799.5 587Z" fill="#1B3A94" fill-rule="evenodd" fill-opacity="0.94902"/><path d="M768 831 799.5 768 874.5 768 906 831 874.5 894 799.5 894Z" fill="#1B3A94" fill-rule="evenodd" fill-opacity="0.94902"/><path d="M508 974.5 539.75 911 615.25 911 647 974.5 615.25 1038 539.75 1038Z" fill="#1B3A94" fill-rule="evenodd" fill-opacity="0.94902"/><path d="M1022 974.5 1053.75 911 1129.25 911 1161 974.5 1129.25 1038 1053.75 1038Z" fill="#1B3A94" fill-rule="evenodd" fill-opacity="0.94902"/></g></svg>