<svg width="407" height="408" xmlns="http://www.w3.org/2000/svg" xmlns:xlink="http://www.w3.org/1999/xlink" xml:space="preserve" overflow="hidden"><g transform="translate(-599 -552)"><path d="M602.5 622.168C602.5 585.348 632.348 555.5 669.168 555.5L935.832 555.5C972.652 555.5 1002.5 585.348 1002.5 622.168L1002.5 889.832C1002.5 926.652 972.652 956.5 935.832 956.5L669.168 956.5C632.348 956.5 602.5 926.652 602.5 889.832Z" stroke="#1B3A94" stroke-width="6.875" stroke-miterlimit="8" fill="#1B3A94" fill-rule="evenodd"/><g><g><g><path d="M261.571 25.025C257.4 20.8542 230.588 25.6208 208.244 31.5792 216.288 36.3458 224.629 42.9 232.673 50.9438 241.015 59.2854 247.569 67.6271 252.335 75.9688 258.294 53.0292 266.04 29.1958 261.571 25.025Z" fill="#FFFFFF" transform="matrix(1 0 0 1.0035 659 612)"/><path d="M95.6312 109.931 85.5021 106.058C81.3313 104.569 76.8625 105.463 73.5854 108.442L26.2167 155.81C18.4708 163.556 25.6208 176.963 36.3458 174.579L75.9688 165.642C79.2458 150.746 84.6083 130.785 95.6312 109.931Z" fill="#FFFFFF" transform="matrix(1 0 0 1.0035 659 612)"/><path d="M174.579 187.688C154.619 198.115 135.552 203.775 120.06 206.754L110.825 249.058C108.442 259.783 121.55 267.231 129.594 259.188L176.963 211.819C179.942 208.84 181.133 204.073 179.346 199.902L174.579 187.688Z" fill="#FFFFFF" transform="matrix(1 0 0 1.0035 659 612)"/><path d="M192.156 36.9417C174.579 44.0917 154.619 56.3063 135.254 75.6708 99.8021 111.123 89.375 154.023 86.3958 178.452L104.867 196.923C129.296 193.944 172.494 183.815 207.946 148.363 227.31 128.998 239.525 109.335 246.675 91.7583 242.802 81.9271 235.056 70.3083 224.033 58.9875 213.308 48.5604 201.988 40.8146 192.156 36.9417ZM207.35 101.292C200.498 108.144 189.177 108.144 182.027 101.292 175.175 94.4396 175.175 83.1188 182.027 75.9688 188.879 69.1167 200.2 69.1167 207.35 75.9688 214.202 83.1188 214.202 94.4396 207.35 101.292Z" fill="#FFFFFF" transform="matrix(1 0 0 1.0035 659 612)"/><path d="M86.0979 197.221C81.3313 192.454 81.9271 184.41 72.0958 194.242 62.2646 204.073 47.6667 226.417 52.1354 231.183 56.9021 235.95 79.2458 221.054 89.0771 211.223 98.9083 201.094 90.8646 201.69 86.0979 197.221Z" fill="#FFFFFF" transform="matrix(1 0 0 1.0035 659 612)"/></g></g></g></g></svg>